<svg width="101" height="20" viewBox="0 0 101 20" fill="none" xmlns="http://www.w3.org/2000/svg">
<path d="M4.76186 0H15.2386C16.5014 0.000123349 17.7125 0.501872 18.6054 1.39488C19.4984 2.28789 20 3.49902 20 4.76186V15.2386C19.9999 16.5014 19.4981 17.7125 18.6051 18.6054C17.7121 19.4984 16.501 20 15.2381 20H4.7614C3.49855 19.9999 2.28747 19.4981 1.39455 18.6051C0.501631 17.7121 -6.02406e-09 16.501 0 15.2381V4.7614C0.000123349 3.49855 0.501872 2.28747 1.39488 1.39455C2.28789 0.501631 3.49902 -6.02406e-09 4.76186 0V0Z" fill="#605BFF"/>
<path d="M4.76562 10.9286L8.40968 14.5728V7.59033H5.17504L4.76562 10.9286Z" fill="#3F3AD5"/>
<path d="M8.12481 7.57617H4.76562V10.9351L8.12481 7.57617Z" fill="#11E6B4"/>
<mask id="mask0_405_330" style="mask-type:alpha" maskUnits="userSpaceOnUse" x="0" y="0" width="20" height="20">
<path d="M4.76186 0H15.2386C16.5014 0.000123349 17.7125 0.501872 18.6054 1.39488C19.4984 2.28789 20 3.49902 20 4.76186V15.2386C19.9999 16.5014 19.4981 17.7125 18.6051 18.6054C17.7121 19.4984 16.501 20 15.2381 20H4.7614C3.49855 19.9999 2.28747 19.4981 1.39455 18.6051C0.501631 17.7121 -6.02406e-09 16.501 0 15.2381V4.7614C0.000123349 3.49855 0.501872 2.28747 1.39488 1.39455C2.28789 0.501631 3.49902 -6.02406e-09 4.76186 0V0Z" fill="#605BFF"/>
</mask>
<g mask="url(#mask0_405_330)">
<path d="M13.786 2.56299L19.9975 8.77462L19.9277 29.3062L8.11719 17.454V6.91683L13.786 2.56299Z" fill="#3F3AD5"/>
</g>
<path d="M13.793 5.93689C12.3473 5.81239 11.6243 6.35662 11.6239 7.56957H13.793V10.9286H11.6238V17.4503H8.125V7.56957C8.125 5.89019 8.59922 4.61112 9.54767 3.73236C10.4961 2.8536 11.9112 2.46867 13.7928 2.57759L13.793 5.93689Z" fill="white"/>
<path d="M96.5252 8.55723V6.51758H93C93.4723 6.51758 93.8062 6.847 93.8488 7.18676C93.8565 7.84176 93.8605 8.59072 93.8605 9.50758V17.5354H96.5249V12.5483C96.5249 9.60642 97.8902 8.5463 100.119 8.56107V6.52269C98.2627 6.54781 97.0415 7.22037 96.5249 8.55758" fill="#2B2B41"/>
<path d="M37.5135 8.55723V6.51758H33.9883C34.4606 6.51758 34.7944 6.847 34.8371 7.18676C34.8448 7.84176 34.8487 8.59072 34.8487 9.50758V17.5354H37.5132V12.5483C37.5132 9.60642 38.8785 8.5463 41.1072 8.56107V6.52269C39.251 6.54781 38.0298 7.22037 37.5132 8.55758" fill="#2B2B41"/>
<path d="M84.5769 12.1603C84.5833 13.8287 85.4211 15.2578 87.0579 15.2578C88.4863 15.2578 88.9174 14.6175 89.2275 13.9046H91.8989C91.4935 15.2738 90.2975 17.3771 86.9845 17.3771C83.411 17.3771 81.8906 14.6298 81.8906 11.7575C81.8906 8.36219 83.6232 5.84521 87.0984 5.84521C90.8052 5.84521 92.0507 8.62091 92.0507 11.2364C92.0579 11.5448 92.0457 11.8534 92.0141 12.1603H84.5769ZM89.3735 10.4663C89.3523 9.0051 88.705 7.79928 87.0855 7.79928C85.4641 7.79928 84.7873 8.92208 84.6412 10.4663H89.3735Z" fill="#2B2B41"/>
<path d="M50.0222 12.1603C50.0286 13.8287 50.8664 15.2578 52.5033 15.2578C53.9316 15.2578 54.3627 14.6175 54.6728 13.9046H57.3442C56.9388 15.2738 55.7428 17.3771 52.4298 17.3771C48.8563 17.3771 47.3359 14.6298 47.3359 11.7575C47.3359 8.36219 49.0685 5.84521 52.5437 5.84521C56.2505 5.84521 57.4961 8.62091 57.4961 11.2364C57.5032 11.5448 57.491 11.8534 57.4594 12.1603H50.0222ZM54.8188 10.4663C54.7976 9.0051 54.1504 7.79928 52.5308 7.79928C50.9094 7.79928 50.2326 8.92208 50.0865 10.4663H54.8188Z" fill="#2B2B41"/>
<path d="M27.9751 17.5406V8.5669H26.5938V6.52283H27.9751C27.9751 6.52283 27.7989 2.80469 31.3865 2.80469C31.8582 2.80469 32.4642 2.85422 32.7371 2.9398V5.08085C32.4892 5.03554 32.2376 5.01292 31.9856 5.01329C30.4665 5.01329 30.6396 6.52271 30.6396 6.52271H32.6605V8.5669H30.6396V17.5406H27.9751Z" fill="#2B2B41"/>
<path d="M65.1311 6.18076C63.134 6.18076 62.2395 7.20052 61.8433 7.97843C61.8349 7.63297 61.8291 6.43808 61.8291 6.43808H58.3164C58.8054 6.43808 59.1464 6.79064 59.1702 7.14262C59.1786 7.80401 59.1786 8.52471 59.1786 9.21378V17.4553H61.8432V11.4188C61.8432 9.38308 62.6172 8.37285 64.1762 8.37285C65.6355 8.37285 66.1277 9.34564 66.1277 10.727V17.4552H68.7921V10.4203C68.7921 7.59704 67.2942 6.18018 65.1311 6.18018" fill="#2B2B41"/>
<path d="M80.575 13.9496V2.46729H77.0517C77.5581 2.46729 77.9094 2.84566 77.9094 3.20973V6.90298C77.6483 6.36705 76.7906 5.73136 75.0829 5.73136C71.9874 5.73136 70.1055 8.20461 70.1055 11.596C70.1055 15.0061 71.8678 17.2632 74.6692 17.2632C76.3685 17.2632 77.3735 16.6783 77.9094 15.7167L77.9198 17.0061H80.5965C80.5752 15.9798 80.5752 14.9639 80.5752 13.95M75.4042 15.0991C73.8316 15.0991 72.8505 13.8433 72.8505 11.5231C72.8505 9.24403 73.7905 7.89519 75.5071 7.89519C77.6644 7.89519 78.0131 9.36147 78.0131 11.4359C78.0131 13.2986 77.6624 15.0987 75.4041 15.0987" fill="#2B2B41"/>
<path d="M42.9202 6.32812H42.0625C42.5676 6.32812 42.9182 6.70452 42.9202 7.06743V17.3465H45.5846V6.32812H42.9202Z" fill="#2B2B41"/>
<path d="M45.5792 3.20757L45.5798 2.8042H42.9219V5.85978H42.927C43.6302 5.8591 44.3043 5.57947 44.8016 5.08225C45.2988 4.58504 45.5784 3.91086 45.5791 3.20769" fill="#11E6B4"/>
</svg>
